<svg width="44" height="38" viewBox="0 0 44 38" fill="none" xmlns="http://www.w3.org/2000/svg">
<g clip-path="url(#clip0_18_852)">
<path d="M28.5566 33.5815C28.3717 33.5744 27.271 33.6447 27.163 33.7337L26.6319 34.1715C26.5151 34.2675 26.416 34.2933 26.3139 34.4103C26.2044 34.5344 26.0934 34.5977 25.9603 34.6749C25.8346 34.7452 25.7147 34.9606 25.6038 35.087L25.2073 35.5366C25.1259 35.6303 25.0165 35.7239 24.9277 35.8082L24.6762 36.047L24.4632 36.1548C24.3759 36.2484 24.2989 36.3093 24.2057 36.3795L23.8477 36.6582L23.5622 36.8712L23.2944 37.0609C22.8891 37.3466 22.7988 37.569 22.5429 37.4683C22.3595 37.3957 22.1657 37.5643 21.9837 37.6182C21.7588 37.6837 21.5118 37.6463 21.3017 37.7751C20.9688 37.9835 20.4688 38.0162 20.1078 37.9858L19.0205 37.8968C18.8652 37.8828 18.6906 37.6463 18.5397 37.555C18.2127 37.3536 17.8917 37.1663 17.5929 36.8712L16.9508 36.239L16.6091 35.944C16.4345 35.7942 16.2851 35.6373 16.1105 35.4991C15.8472 35.2931 15.5765 35.1128 15.3235 34.881L14.6504 34.2628L14.2879 33.7828C14.2879 33.7828 12.8766 32.3194 12.8736 32.3124C12.7952 32.1719 12.6813 32.1157 12.5837 32.0197L11.9727 31.4226L10.2536 29.7695C10.0672 29.5916 9.93408 29.3387 9.71513 29.1818C9.59234 29.0928 9.45919 28.8751 9.32309 28.7627C9.12485 28.5988 8.9562 28.3763 8.77128 28.182L8.51534 27.9151C8.34077 27.7324 8.16916 27.5872 8.02122 27.3461C7.90287 27.1517 7.75937 26.8918 7.62919 26.7443C7.33035 26.5266 7.13063 26.1941 6.85695 25.9224L6.27259 25.3441C6.18086 25.2528 6.07879 25.0889 6.01813 24.9765C5.53733 24.0914 5.27992 24.4403 4.84793 23.4428C4.56537 23.2297 4.27245 23.0213 4.09049 22.635C3.72064 21.8436 3.19694 21.2723 3.14368 21.1833L2.80046 20.619L2.40102 20.1249C2.22794 19.9118 2.11254 19.6613 1.94833 19.4272L1.59476 18.9237C1.31811 18.5327 1.1036 18.0644 0.883171 17.5844C0.770738 17.3386 0.745588 16.9147 0.670139 16.6431C0.479298 16.6455 0.508886 16.3832 0.440834 16.2615C0.267745 15.9547 -0.0103798 15.3834 -2.40495e-05 14.9783C0.0118111 14.5405 -0.00446222 14.0815 0.124245 13.6882C0.213008 13.4189 0.415684 13.241 0.544391 13.0279C0.624278 12.8968 0.702686 12.789 0.784052 12.6673C0.899445 12.4964 0.967497 12.2388 1.15686 12.199C1.39948 12.1475 1.56813 11.8969 1.78412 11.7424L2.22054 11.4286L2.53565 11.1851L2.81821 10.9674L3.14368 10.7496L3.93219 10.1806L4.94409 9.42667L5.19115 9.25106C5.70154 8.89047 6.19862 8.58139 6.73416 8.32617C6.86138 8.26529 6.99305 8.11075 7.12028 8.0288C7.4132 7.84148 7.72683 7.67758 8.03602 7.51836C8.09371 7.48792 8.24461 7.52772 8.30231 7.49026L8.80826 7.16713C9.07751 6.99621 9.26983 7.05474 9.5805 6.86508C9.72252 6.77845 9.83052 6.67542 9.98585 6.6684C10.1146 6.66371 10.2403 6.6122 10.3527 6.53259L10.7492 6.25629L11.1723 6.18605C11.3069 6.16264 11.409 6.02917 11.5466 6.00341C11.6842 5.97766 11.7981 5.86761 11.912 5.80907C12.4638 5.52809 12.1946 5.55853 12.8085 5.47658C13.0216 5.20497 13.239 5.12301 13.4935 5.00594C14.458 4.56106 14.39 4.07637 14.6977 3.91949C14.9418 3.79539 14.9862 3.54017 15.0838 3.23812L15.5513 1.80044C15.6135 1.61078 15.6741 1.4141 15.7037 1.20102C15.8132 0.383844 16.2096 0.573505 16.504 0.187159C16.6401 0.00920644 16.7585 -0.0727456 16.9301 0.0700851C17.1934 0.290185 17.3088 -0.089136 17.868 0.0349628C18.0944 0.084134 18.3562 0.147354 18.556 0.294868C18.7246 0.418967 18.8873 1.28766 18.769 1.66464L18.6137 2.16103C18.4805 2.58718 18.2616 3.33178 18.2127 3.78134C18.155 4.31052 17.8961 4.40184 17.9376 4.80926C17.979 5.21667 18.7261 5.24243 18.8296 5.22136C19.0767 5.17453 19.1388 5.17921 19.2986 5.4836C19.843 6.20478 20.1345 5.90741 20.3623 6.09005C20.4999 6.2001 20.6227 6.268 20.7824 6.26098C20.8964 6.2563 20.9807 6.34995 21.0931 6.3921L21.531 6.55132C21.8994 6.68713 22.2263 6.87211 22.6006 7.0126L23.1998 7.23972C23.364 7.3006 23.506 7.42704 23.6865 7.42236C23.8433 7.42001 23.9824 7.52538 24.1273 7.59094L24.8197 7.90939L25.6985 8.16929L26.1822 8.41046C26.2932 8.46666 26.4086 8.57203 26.5299 8.57905C26.8257 8.59778 27.1068 8.60247 27.3909 8.67505C27.6498 8.74296 28.3554 9.15506 28.3687 8.373C28.3732 8.10373 28.4753 7.95622 28.6291 7.88597C28.7075 7.85085 28.7978 7.59563 28.8688 7.54411C29.9458 6.77611 29.7594 6.7644 30.8985 6.84167L32.8084 6.97045L33.1753 6.96342C33.4697 6.95874 34.1798 7.29592 34.4727 7.46919C34.6414 7.56987 34.7952 7.63075 34.9742 7.69631L35.3426 7.83212C35.8249 8.01007 35.529 8.22315 36.0039 8.37534C36.1592 8.65632 36.4802 9.04969 36.535 9.41965C36.5764 9.70062 36.5527 10.1034 36.4728 10.3469L36.3471 10.7309C36.2347 11.0751 36.1903 11.4708 36.3382 11.815L37.5247 11.9508C37.6208 11.9625 37.7244 12.1241 37.8043 12.1779C38.109 12.3887 38.4508 12.2739 38.7762 12.3512C39.2008 12.4519 39.4479 12.8218 39.8399 12.8523C40.232 12.8827 40.5634 13.0934 40.8977 13.4259C41.0175 13.4751 41.232 13.4587 41.3415 13.5453L41.633 13.7795C41.7513 13.8755 41.883 13.9481 42.0058 14.0347C42.2632 14.2174 42.4969 14.393 42.778 14.5077C42.96 14.5826 43.1345 14.7536 43.3209 14.8613C43.4674 14.9479 43.5843 15.1539 43.6967 15.3272L43.8402 15.5473C43.9674 15.7417 43.9941 15.9758 44.0029 16.2474C44.0222 16.8141 43.8446 17.2683 43.5088 17.4369L43.2499 17.8186C42.8431 18.4133 42.636 18.2986 42.2454 18.8629C42.1463 19.0057 42.0117 19.1017 41.8992 19.2141L41.3918 19.7152C41.2587 19.8463 41.0279 19.9376 40.9214 20.0781C40.7187 20.345 40.5471 20.5651 40.337 20.7946L39.7068 21.483C39.6106 21.5884 39.5145 21.6375 39.4124 21.7476L39.1017 22.0777C38.8946 22.2978 38.683 22.4524 38.4641 22.6514L38.1002 22.9839L37.4596 23.6535C37.2821 23.8385 37.1223 24.0048 36.9063 24.0937C36.7214 24.1687 36.5453 24.37 36.3708 24.5035L36.0349 24.7611C35.8175 24.9273 35.603 25.0678 35.3988 25.2645C35.2686 25.3909 35.1739 25.5595 35.0378 25.6625L34.631 25.974C34.4668 26.1004 34.3544 26.2854 34.1857 26.3954C33.9342 26.557 33.2655 27.1143 33.1694 27.4655C32.9549 28.2546 32.8439 28.8048 32.4533 29.5002C32.3557 29.6735 32.2699 29.9006 32.1678 30.0482L31.7758 30.6124C31.7122 30.7038 31.6515 30.7834 31.5997 30.8958C31.4444 31.2329 31.1899 31.4249 31.0095 31.7012C30.7831 32.0501 30.5405 32.1812 30.2653 32.4037L29.5952 32.9493L29.1306 33.2373C28.9442 33.352 28.7771 33.5721 28.564 33.5627L28.5566 33.5815ZM13.6873 8.07329L14.1355 8.09202L14.6326 8.10373C14.7746 8.10607 14.8649 8.0569 14.9818 7.95622C15.1948 7.77592 15.4374 7.67524 15.6342 7.45982C15.9596 7.10157 15.9655 6.87211 16.2881 6.69181C16.3413 6.66137 16.362 6.42254 16.402 6.35698C16.7186 5.83483 16.9449 5.72946 17.007 5.17219C17.587 4.13022 17.2112 3.80242 17.5618 3.56358C17.6195 3.52378 17.6668 3.33646 17.6594 3.26153C17.6521 3.18661 17.5958 3.08592 17.5381 3.00631L17.2807 3.70407L16.7822 3.94291C16.4685 4.09276 16.1712 3.96866 15.8827 4.04125C15.6978 4.08808 15.4626 4.29179 15.3324 4.50018C15.1756 4.75306 15.0335 4.94506 14.8486 5.14877L14.532 5.49999C14.3826 5.66624 14.0409 6.36869 13.5586 6.58879L13.347 6.92596C13.2183 7.12967 13.1236 7.34509 13.1236 7.63075L13.3988 7.77826C13.4654 7.92812 13.5615 8.07095 13.6917 8.07797L13.6873 8.07329ZM25.6511 14.7067C25.9588 15.3038 26.0772 15.5567 26.1408 16.2802L26.2014 16.9616C26.2222 17.191 26.1511 17.4908 26.1349 17.7296C26.1156 18.027 26.2236 18.1932 26.4071 18.2166L27.345 18.3384C27.564 18.3665 28.1291 18.418 28.3318 18.3384C28.3362 18.0176 28.3362 17.7577 28.3525 17.4533L28.3983 16.5729C28.4131 16.2989 28.4338 16.0835 28.4279 15.8142L28.3924 14.1729C28.3835 13.7327 28.3687 13.3018 28.3865 12.8593C28.4057 12.3816 28.4989 11.8595 28.4693 11.4005C28.4398 10.9416 28.0684 10.8199 27.8835 10.7051C27.7474 10.6208 27.6572 10.5436 27.524 10.5225C27.3909 10.5014 27.2903 10.4171 27.1749 10.3656L26.5077 10.0659C26.2976 9.97224 26.0461 10.005 25.8419 9.86687C25.626 9.7217 25.4188 9.63974 25.1895 9.5414L24.6244 9.30257C24.512 9.25574 24.3788 9.14569 24.2486 9.14335C23.8211 9.14335 23.4409 9.00052 23.0311 8.83427C22.8994 8.78042 22.7589 8.75232 22.6243 8.68208C22.0103 8.35427 22.1154 8.52988 21.6242 8.23719C21.4348 8.1248 21.2026 8.14588 20.991 8.1131C20.923 8.10139 20.7972 8.02412 20.7381 8.02412C20.2543 8.02178 19.8371 7.80168 19.3903 7.58158C19.2187 7.49494 19.0575 7.51836 18.9007 7.30996C18.8326 7.21865 18.6329 7.25845 18.55 7.19991C17.8651 6.70118 17.8059 7.03133 17.1964 6.7082C17.0854 6.7644 16.8976 6.89084 16.7955 6.98918C16.2629 8.10841 15.9729 7.92343 15.4034 8.65398C15.2199 8.66803 15.0528 8.74296 14.8723 8.82257C14.7362 8.88344 14.5808 8.91154 14.4566 9.00988C14.2642 9.15974 14.0912 9.09184 13.8914 9.10354L13.3559 9.13164C13.2257 9.13867 13.1813 9.22062 13.1059 9.35877C12.8751 9.46179 12.3396 9.79428 12.1384 10.1736C12.6828 10.4405 12.665 9.77555 13.1355 9.7896C13.4639 9.79897 13.7701 9.60462 14.0897 9.4735C14.2066 9.42667 14.3959 9.57652 14.5098 9.45711C14.8812 9.06608 14.961 9.43369 15.4004 9.17145C15.8028 9.23701 16.186 9.17613 16.5928 9.09652C16.831 9.04969 17.0884 9.09652 17.3266 9.10589L17.7334 9.12228L18.155 9.13398C18.556 9.14569 18.8148 9.27447 18.9702 9.28852L19.6773 9.35174C19.8726 9.36813 20.0472 9.38686 20.238 9.4454C20.5798 9.55077 20.9437 9.56248 21.2603 9.79194C21.7766 10.1642 21.5784 10.0448 22.1287 10.2837C22.6139 10.4944 23.5237 11.3748 23.9957 11.8244C24.1732 11.9929 24.3034 12.3161 24.4558 12.5385C24.549 12.6767 24.62 12.7914 24.6954 12.9553C25.0209 13.6601 25.0312 13.4985 25.333 14.0815L25.66 14.7137L25.6511 14.7067ZM4.06386 12.3488C4.24434 12.288 4.35826 12.309 4.48844 12.1358L4.65266 11.9133L5.09351 11.8688C5.18819 11.8595 5.27252 11.7471 5.32874 11.6722C5.60982 11.5317 5.92345 11.4942 6.1927 11.2226C6.27998 11.1336 6.46047 11.1734 6.56551 11.0962C7.1188 10.6958 6.93979 10.7356 7.48125 10.4429C8.26532 10.0191 7.98424 10.3937 8.77867 9.87858L9.16183 9.63038C9.32901 9.52267 9.49765 9.45477 9.67222 9.35642C9.88378 9.23935 10.3276 8.82257 10.4741 8.80383L10.7699 8.76637C11.0481 8.73125 12.5304 8.24422 12.3262 7.5488C12.27 7.35914 12.0703 7.49494 11.9771 7.49026C11.7271 7.47855 11.5155 7.49963 11.2907 7.64246L10.9134 7.88129L10.1723 8.33788L9.72548 8.59544L8.83193 8.98881C9.22693 8.81554 7.38657 9.79897 7.74162 9.58121L7.25786 9.87858L6.98861 10.0729L6.70013 10.2462L6.29478 10.4874C6.15867 10.567 6.02553 10.8152 5.88351 10.8831C5.71486 10.9627 5.52106 10.965 5.36572 11.0868C4.97368 11.3935 4.90859 11.0938 4.49732 11.6206C4.44406 11.6885 4.28577 11.6979 4.22807 11.7518L3.95438 12.0046C3.85231 12.1006 3.75023 12.1686 3.61856 12.2107L3.42772 12.487C3.39074 12.5408 3.45435 12.7469 3.50465 12.7539C3.55199 12.7586 3.97953 12.3746 4.06682 12.3442L4.06386 12.3488ZM34.6887 10.2017C35.0142 10.3422 35.3263 10.2415 35.6059 9.96521C35.6607 9.91136 35.7524 9.82004 35.7731 9.74277C35.8352 9.50628 35.5911 9.03564 35.4388 8.91857L35.1236 8.67505C35.0911 8.6493 34.4668 8.28402 34.4268 8.26763C34.0881 8.12246 33.733 8.11544 33.3898 8.00305L32.7714 7.79934L32.1116 7.76655C31.8779 7.75485 31.6648 7.66119 31.4296 7.66353C30.8926 7.38255 31.1012 7.75719 30.431 7.62372C30.2239 7.58158 30.036 7.70334 29.8452 7.80402C29.5922 7.93748 29.104 8.24188 29.0581 8.67271C28.9871 9.34238 29.6499 9.26979 29.9251 9.32833C30.0671 9.46647 30.2239 9.56482 30.394 9.5976L31.7832 9.86921C31.9119 9.89497 32.0672 10.0706 32.1871 10.1244C32.4992 10.1713 32.8099 10.1478 33.125 10.1338C33.2833 10.1268 33.4445 10.1666 33.6073 10.1853C33.9638 10.2298 34.3277 10.204 34.6887 10.2017ZM19.5353 23.4241L20.2439 23.3023C20.3771 23.2789 20.4747 23.2953 20.5561 23.115L20.9245 22.2978C21.3017 21.4619 21.1242 21.5134 21.5192 20.9257L21.8994 20.3591L22.1671 19.9891C22.4024 19.6613 22.5562 19.5513 22.8551 19.3429C22.9705 19.2633 23.1199 19.1368 23.2353 19.1368C23.4128 19.1368 23.435 18.8816 23.5415 18.809C23.7072 18.6966 23.8877 18.5983 24.0593 18.5046C24.5652 18.2307 25.2546 18.5444 25.512 17.7436C25.5609 17.472 25.515 17.088 25.5505 16.8117C25.62 16.2662 25.5076 16.0156 25.302 15.5731C25.2176 15.3928 25.1363 15.1891 25.0416 15.0322L24.8685 14.7395L24.6422 14.3204L24.2915 13.7397L24.0652 13.3697C24.0105 13.2808 23.9469 13.1169 23.8921 13.0372C23.2279 12.0819 23.1894 12.096 22.4142 11.4872L22.0015 11.1641L21.6464 10.8948C21.3461 10.6653 21.0413 10.4874 20.7099 10.4148L19.8741 10.2321L19.3593 10.1666L18.8208 10.1104L18.3622 10.0565L17.7778 10.0097L17.192 9.96521L16.7615 9.92307C16.4863 9.89497 16.2215 9.9418 15.9478 9.9699L15.4818 10.0191C15.2392 10.0448 15.0069 10.1221 14.7687 10.1713C14.501 10.2251 14.2465 10.2626 13.9802 10.3469C13.776 10.4124 13.5497 10.4241 13.3618 10.5623C13.1932 10.684 13.0364 10.7496 12.8573 10.8362L12.3839 11.0657C11.7582 11.3678 11.915 11.5598 11.4046 11.6581C11.3055 11.6768 11.159 11.8337 11.0407 11.8969C10.9711 11.9344 10.906 12.1287 10.8528 12.1966L10.3542 12.8195C10.0968 13.1403 9.83644 13.3814 9.54943 13.6367C9.40593 13.7654 9.28906 14.0628 9.15888 14.2361C9.05828 14.3695 8.98579 14.5241 8.89998 14.6739L8.54345 15.2991C8.10555 16.0648 8.28899 16.0648 8.24017 16.8375C8.15585 18.1862 8.23278 17.362 8.36444 18.2096L8.49019 19.0127C9.15888 19.865 8.65884 19.57 9.49914 20.5721C9.72548 20.8414 10.0288 20.9257 10.2803 21.1435C10.3882 21.2348 10.5125 21.2582 10.6309 21.3214C10.7566 21.387 10.8809 21.6399 10.9992 21.7312L11.5022 22.1152C11.8203 22.3587 12.1783 22.4547 12.5274 22.5858C12.7079 22.6537 12.918 22.642 13.1059 22.6912C13.4728 22.7895 13.8204 22.8598 14.1918 22.8762C14.4359 22.8879 14.6518 22.9488 14.8841 23.0658L15.2022 23.0846L15.6978 23.1431L16.1623 23.1876C16.3369 23.204 16.5366 23.2812 16.7245 23.3187C17.0396 23.3819 17.3325 23.4053 17.6521 23.4264C18.6995 23.4967 18.3873 23.6231 19.5353 23.4264V23.4241ZM34.4742 18.9893C34.7094 18.7598 34.6724 18.432 34.702 18.1253L34.8544 16.5705C34.8795 16.3153 34.9372 16.0929 34.992 15.847C35.0364 15.6503 35.1103 14.9994 35.1902 14.6903C35.2509 14.4585 35.3544 14.3063 35.3441 14.0183C35.3352 13.7959 35.3071 13.4564 35.3544 13.2737L35.4979 12.7118C35.6089 12.2763 35.6666 11.8103 35.6947 11.3326C35.5793 11.0751 34.9062 11.1828 34.52 11.1383C34.3884 11.1242 34.2612 11.0985 34.125 11.1032C33.9283 11.1079 33.7508 11.0681 33.5584 11.0587L32.9223 11.0329L32.5288 10.9744L32.1397 10.9182C32.0332 10.9018 31.8897 10.8995 31.7891 10.8667L30.9813 10.6161C30.7624 10.5482 30.5597 10.4967 30.3319 10.4593C30.2579 10.4476 30.1425 10.3656 30.0686 10.3469L29.4665 10.1806C29.3585 10.1502 29.2179 10.2345 29.0744 10.1361C29.0389 10.1877 28.9827 10.396 28.9827 10.4991L28.9753 12.3933L28.9457 12.8406L28.9206 13.2527L28.888 14.7887L28.8525 16.21C28.8451 16.4839 28.8451 16.7274 28.8599 17.0014C28.9028 17.8279 28.7697 18.4133 29.1292 18.521C29.4309 18.6123 29.7372 18.7411 30.0419 18.7856C30.2387 18.8137 30.3822 18.8418 30.5257 19.0455C30.8497 19.5021 31.1337 19.2539 31.3778 19.9399L31.8675 20.5815C32.2018 21.0194 31.9503 20.921 32.3128 21.3846C32.4711 21.5884 32.6886 21.5392 32.8764 21.5743L33.2389 21.6399C33.4504 21.6797 33.6221 21.6235 33.8173 21.4596C34.0881 21.2324 34.1532 20.7618 34.2745 20.3755C34.4416 19.8416 34.6946 19.4974 34.4757 18.987L34.4742 18.9893ZM7.76085 12.0468L8.23278 11.7494C8.37776 11.6581 8.5257 11.3795 8.65292 11.232C8.83341 11.3186 8.99614 11.2132 9.09674 10.9931L9.25799 11.0095C9.32901 11.0165 9.44588 11.0493 9.51097 11.0704C9.84679 10.6372 9.6737 11.1406 10.0214 10.7239C10.0776 10.656 10.1368 10.5412 10.1175 10.4429C9.87342 10.4054 9.57902 10.4288 9.38078 10.656C9.31865 10.7262 9.24764 10.8503 9.17515 10.8222C8.95768 10.7356 8.82749 10.8878 8.6544 10.9955L8.35557 11.1804L8.01975 11.328C7.84962 11.4029 7.72683 11.5246 7.56853 11.6464C7.39544 11.7799 7.09957 11.8009 7.06406 12.2458C7.17797 12.3418 7.30816 12.2318 7.41911 12.103L7.76085 12.0515V12.0468ZM20.8461 36.41C20.9674 36.431 21.0591 36.3397 21.176 36.2999L21.5207 36.1875L21.9068 35.9253L22.25 35.6841L22.6465 35.4523L23.2663 35.0449C23.4187 34.9442 23.5711 34.8716 23.722 34.7592L24.7087 34.024C24.7546 33.9889 24.8404 33.8367 24.8789 33.7781C24.9233 33.5791 24.8848 33.1928 24.7368 33.1132C24.6303 33.057 24.5519 32.9422 24.4558 32.8743L24.0652 32.6051L23.7797 32.3639C23.5711 32.1883 23.0089 31.6029 22.8743 31.3289C22.3343 30.2402 22.5044 30.9145 22.2648 30.5001C22.1257 30.2589 21.9689 30.1137 21.8091 29.917C21.6494 29.7203 21.3328 29.1841 21.21 28.9125C21.1242 28.7229 21.0635 28.5636 20.9496 28.4091C20.8209 28.2312 20.8194 27.901 20.744 27.6739C20.5502 27.1002 20.3386 26.5546 20.3297 25.8709C20.3268 25.6415 20.2306 25.405 20.2306 25.1825V24.2717C20.0442 24.2015 19.8904 24.2764 19.7054 24.2834L18.8725 24.3162L18.6876 24.4637C17.8266 24.2155 17.7571 24.4801 16.7644 24.1921C16.5529 24.1312 16.3369 24.1453 16.1268 24.1218L15.6978 24.0703L14.8841 23.9228L14.4566 23.876C14.2302 23.8526 14.032 23.8245 13.8056 23.7683C13.6636 23.7332 13.5068 23.7519 13.35 23.7495C13.2035 23.7472 13.0497 23.6137 12.9091 23.5622L12.0969 23.2695L11.2374 23.0424C10.9889 22.9769 10.8069 22.6771 10.5909 22.4969C10.1589 22.1363 10.1797 22.3353 9.7743 21.8717C9.57902 21.6492 9.3364 21.5228 9.12041 21.3074C8.15585 20.352 8.64405 20.4598 7.97536 19.6496L7.71795 18.6732C7.62623 18.3267 7.5493 18.0152 7.46793 17.6453C7.40876 17.3737 7.59812 16.5729 7.50788 16.1959C7.34219 15.5052 7.73274 15.1797 8.04194 14.6435C8.28308 14.2244 8.51238 13.8053 8.7979 13.4353C9.2358 12.8687 9.08491 12.7469 9.437 12.5479C9.51097 12.5057 9.57606 12.3559 9.55091 12.2201C9.39706 12.2037 9.23285 12.1803 9.08491 12.2528L8.77128 12.4074C8.44285 12.5689 8.14697 12.583 7.85553 12.9085C7.76973 12.9904 7.58037 13.0209 7.47533 13.0934C6.78298 13.5688 6.65723 13.248 6.27407 13.5524C6.08766 13.7022 5.91014 13.8146 5.69562 13.7865C5.4101 14.1775 5.04321 14.2056 4.70887 14.393C4.50324 14.5077 4.3405 14.7091 4.10676 14.7255C3.84787 14.7442 3.61264 14.8894 3.35967 14.9994C3.19546 15.072 2.98242 14.9947 2.81082 15.0275C2.65696 15.0579 2.52381 15.0626 2.37587 15.0462C1.81667 14.9877 2.09183 14.0979 1.85365 14.0698C1.67021 14.0488 1.52227 14.3695 1.54002 14.6084C1.55629 14.8168 1.55629 15.0298 1.53558 15.2312L2.07704 16.8562C2.13473 17.0295 2.28119 17.1512 2.35664 17.3058C2.44984 17.4978 2.50606 17.753 2.61554 17.9075C2.72501 18.0621 2.85668 18.1955 2.94248 18.3501C3.18954 18.7879 3.40405 19.2258 3.72952 19.5349C3.84195 19.6402 3.97214 19.8486 4.03575 20.0242C4.27097 20.6799 4.37601 20.4106 4.72219 21.0896C4.82722 21.2933 4.91451 21.5696 5.06393 21.6797C5.274 21.8319 5.43377 21.9864 5.58319 22.2697C5.6616 22.4219 5.85244 22.4172 5.94268 22.5577L6.41609 23.3023L7.00045 23.9556C7.21792 24.1991 7.67505 24.8056 7.8792 25.11C7.9443 25.206 8.09371 25.3066 8.181 25.398C8.28899 25.5127 8.38072 25.6344 8.48427 25.7562L8.72837 26.0512C8.91626 26.2784 9.13964 26.5078 9.35415 26.6647C9.48286 26.7584 9.57606 26.7841 9.65299 26.9995C9.76395 27.3086 9.94887 27.517 10.1545 27.606C10.2862 27.8144 10.4149 27.9923 10.5599 28.1539L10.8957 28.5285C10.98 28.6222 11.0096 28.7931 11.1457 28.8142C11.3291 28.8423 11.3691 29.1045 11.6442 29.3551L12.8588 30.4673L13.6207 31.1744L14.0054 31.5373L14.6859 32.1766C15.3043 32.7573 15.1874 32.9001 15.6164 33.2935L16.0661 33.7079C16.2999 33.9233 16.5144 34.1668 16.7511 34.3682C17.3044 34.8388 17.263 35.1081 17.8547 35.4827C18.1107 35.6443 18.3518 35.8597 18.6077 35.9768C18.7749 36.0517 18.9184 36.1079 19.0752 36.2016C19.1921 36.2718 19.3267 36.3491 19.4436 36.3936L19.9096 36.5739C20.5916 36.8361 20.5191 36.3397 20.8416 36.4006L20.8461 36.41ZM2.88183 13.1028C2.98242 13.0185 3.07711 12.8569 3.15551 12.7048C3.11113 12.6767 2.99722 12.6626 2.95284 12.7048L2.6466 12.9974C2.7117 13.063 2.83005 13.145 2.88183 13.1005V13.1028ZM36.458 22.6678C36.5882 22.5601 36.6755 22.4945 36.7421 22.3283C37.143 22.1433 36.967 21.9068 37.4566 21.8272L37.6549 21.5228C37.8368 21.4713 37.9981 21.3565 38.1238 21.1388C38.2496 20.921 38.3798 20.8531 38.5499 20.7337C38.7067 20.6213 38.8709 20.4082 39.0277 20.2537C39.294 19.9915 39.5455 19.7409 39.8237 19.5044C39.8961 19.4412 40.0234 19.3686 40.084 19.3007C40.4287 18.9214 40.7586 18.6264 41.1507 18.4016C41.448 18.2307 41.6862 17.8701 41.9392 17.575L42.1833 17.2917C42.3712 17.1981 42.4703 17.0459 42.5975 16.8024C42.6804 16.6431 42.8534 16.505 42.7854 16.21C42.6878 16.128 42.5443 16.0062 42.4333 15.936L42.0812 15.7112C41.8386 15.5543 41.6048 15.4396 41.3667 15.2687C40.7675 14.8402 40.9613 15.1703 40.5767 14.8168C40.4761 14.7255 40.2793 14.791 40.1787 14.7255L39.7438 14.4398C39.6683 14.3906 39.5603 14.2689 39.4804 14.2618C39.0499 14.2314 38.6683 14.0815 38.2629 13.8919C37.7333 13.6437 37.9463 13.6062 37.4655 13.5805C37.2806 13.5711 37.1045 13.4611 36.9315 13.4306L36.1281 13.2808C35.9255 13.2433 35.8545 13.7327 35.8663 13.9668C35.8781 14.201 35.7568 14.3532 35.6873 14.5405C35.6547 14.6295 35.6503 14.8589 35.6385 14.9783L35.5334 16.0367L35.4683 16.7766C35.4062 17.4814 35.2094 17.5844 35.1458 18.6334C35.1 19.385 35.1784 19.3171 35.0171 19.9751C34.7937 20.8836 34.9639 21.2512 34.4624 21.8202C34.2759 22.0309 34.094 22.45 33.8425 22.4898L33.3824 22.5601L32.8957 22.5741C32.7699 22.7638 32.9001 23.012 32.9475 23.1899L33.0836 23.7097C33.2522 24.349 33.2448 25.1146 33.628 25.0444C33.7596 25.021 33.8839 24.8922 33.9919 24.7798C34.2893 24.4684 34.2257 24.5995 34.5408 24.3045C34.6206 24.2296 34.7124 24.1546 34.7982 24.0844L35.097 23.8409L35.3914 23.6137L35.6399 23.3515L36.1607 22.923L36.4654 22.6748L36.458 22.6678ZM25.9633 32.5161C26.123 32.4997 26.2355 32.6378 26.6941 32.6449L27.2415 32.6519C27.3835 32.6519 27.5492 32.6449 27.7045 32.6168L28.3007 32.5114L28.6972 32.4739C28.8851 32.4575 29.0434 32.4271 29.1957 32.2304C29.2786 32.1227 29.4354 32.1157 29.5315 32.0384L30.6943 31.1252C30.7964 31.0456 30.8571 30.9005 30.931 30.7623C31.3645 29.9522 31.4962 30.2753 31.6574 29.6946C31.6885 29.5822 31.7891 29.3878 31.8498 29.3036C31.9814 29.1162 32.0524 28.9313 32.1515 28.6995C32.2551 28.4536 32.3882 28.2124 32.5096 27.9549C32.4341 26.8192 32.7418 27.1751 32.622 25.6181L32.5258 24.3654C32.477 23.7332 32.2566 23.2016 32.0968 22.6444C32.0258 22.3962 31.9666 22.3166 31.8409 22.1199C31.3334 21.3285 31.3231 21.0545 30.6367 20.1647C30.4887 19.9727 30.4059 19.865 30.1943 19.8065C30.1144 19.7831 29.9783 19.6683 29.8792 19.6566C29.5774 19.6192 29.283 19.6192 28.9886 19.5442C28.6779 19.4646 28.3835 19.3639 28.0699 19.3265L27.5728 19.2679C26.8746 19.1836 26.1911 19.1696 25.4884 19.2024C25.3745 19.2071 25.2443 19.289 25.1318 19.3288C24.8715 19.4201 24.6037 19.3288 24.3359 19.3101L23.7767 19.7105C23.2856 20.0617 23.2367 19.9774 22.861 20.5113L22.5222 20.9936L22.1716 21.497C22.0769 21.6328 21.9497 21.7171 21.8935 21.9115L21.7337 22.4688C21.6523 22.7497 21.4955 23.005 21.4911 23.3538C21.4866 23.7425 21.426 24.1101 21.3934 24.6557C21.3831 24.843 21.4556 25.1123 21.4038 25.2926C21.2618 25.7983 21.4363 26.4867 21.5532 26.9902C21.6079 27.2267 21.6538 27.4561 21.7233 27.6786L21.8654 28.1328C21.9201 28.3084 21.96 28.5285 22.0769 28.662C22.3432 28.9687 22.4497 29.2263 22.8358 29.6946C23.222 30.1629 22.9631 30.0083 23.2767 30.5773C23.7575 30.856 23.5459 30.87 23.8744 31.3149C24.0637 31.3453 24.185 31.4718 24.3433 31.5959L25.0342 32.1344C25.1585 32.2328 25.3212 32.2468 25.4529 32.3217C25.6289 32.4201 25.768 32.5348 25.9677 32.5114L25.9633 32.5161Z" fill="black"></path>
<path d="M20.8461 36.4101C20.5236 36.3515 20.5961 36.8479 19.9141 36.5834L19.448 36.4031C19.3312 36.3586 19.198 36.2813 19.0797 36.2111C18.9229 36.1174 18.7794 36.0635 18.6122 35.9863C18.3563 35.8692 18.1151 35.6561 17.8592 35.4922C17.2674 35.1176 17.3089 34.8483 16.7556 34.3777C16.5203 34.1763 16.3043 33.9305 16.0706 33.7174L15.6209 33.3029C15.1918 32.9096 15.3087 32.7667 14.6903 32.186L14.0098 31.5468L13.6252 31.1839L12.8633 30.4768L11.6487 29.3646C11.375 29.114 11.3336 28.8518 11.1502 28.8237C11.0155 28.8026 10.9845 28.6317 10.9001 28.538L10.5643 28.1634C10.4179 28.0018 10.2891 27.8239 10.159 27.6155C9.95333 27.5288 9.7684 27.3204 9.65745 27.009C9.58052 26.7936 9.48732 26.7678 9.35861 26.6742C9.1441 26.5173 8.92071 26.2855 8.73283 26.0607L8.48873 25.7657C8.38665 25.6416 8.29493 25.5222 8.18546 25.4074C8.09817 25.3138 7.94875 25.2154 7.88366 25.1194C7.6795 24.815 7.22237 24.2086 7.0049 23.9651L6.42054 23.3118L5.94714 22.5672C5.8569 22.4267 5.66606 22.4291 5.58765 22.2792C5.43971 21.9935 5.27994 21.8414 5.06838 21.6892C4.91896 21.5814 4.8302 21.3028 4.72664 21.0991C4.38047 20.4201 4.27395 20.6893 4.04021 20.0337C3.97659 19.8581 3.84641 19.6497 3.73397 19.5444C3.40703 19.2376 3.194 18.7974 2.94694 18.3596C2.86113 18.2074 2.72651 18.0669 2.61999 17.917C2.51348 17.7672 2.4543 17.5073 2.3611 17.3153C2.28565 17.1584 2.13771 17.0366 2.0815 16.8657L1.54004 15.2407C1.56075 15.0393 1.55927 14.8263 1.54448 14.6179C1.52672 14.379 1.67466 14.0582 1.85811 14.0793C2.09629 14.1074 1.82112 14.9972 2.38033 15.0557C2.52827 15.0721 2.66142 15.0674 2.81527 15.037C2.98688 15.0042 3.19843 15.0791 3.36413 15.0089C3.6171 14.8988 3.85232 14.7537 4.11122 14.7349C4.34496 14.7185 4.50769 14.5172 4.71333 14.4024C5.04767 14.2151 5.41456 14.187 5.70008 13.796C5.91459 13.8241 6.09212 13.7117 6.27852 13.5619C6.66021 13.2551 6.78595 13.5782 7.47979 13.1029C7.58334 13.0327 7.77419 12.9999 7.85999 12.9179C8.15143 12.5925 8.44731 12.5784 8.77573 12.4169L9.08936 12.2623C9.2373 12.1897 9.40299 12.2108 9.55537 12.2295C9.58052 12.3654 9.51543 12.5152 9.44146 12.5574C9.08936 12.7564 9.24026 12.8781 8.80236 13.4448C8.51684 13.8147 8.28753 14.2339 8.04639 14.653C7.7372 15.1892 7.34664 15.5147 7.51233 16.2054C7.60258 16.5824 7.41321 17.3832 7.47239 17.6548C7.55376 18.0247 7.63069 18.3361 7.72241 18.6827L7.97982 19.6591C8.6485 20.4692 8.16031 20.3615 9.12487 21.3169C9.34086 21.5323 9.58348 21.6564 9.77876 21.8812C10.1841 22.3448 10.1634 22.1457 10.5954 22.5063C10.8114 22.6866 10.9933 22.9863 11.2419 23.0519L12.1014 23.279L12.9136 23.5717C13.0541 23.6232 13.208 23.7567 13.3544 23.759C13.5127 23.7614 13.6681 23.7426 13.8101 23.7778C14.035 23.834 14.2332 23.8621 14.461 23.8855L14.8886 23.9323L15.7022 24.0798L16.1313 24.1313C16.3413 24.1571 16.5573 24.1407 16.7689 24.2016C17.7601 24.4896 17.8296 24.225 18.6921 24.4732L18.877 24.3257L19.7099 24.2929C19.8948 24.2859 20.0487 24.2109 20.2351 24.2812V25.192C20.2351 25.4145 20.3298 25.651 20.3327 25.8804C20.3416 26.5641 20.5532 27.1097 20.747 27.6834C20.8239 27.9081 20.8239 28.2406 20.9526 28.4186C21.065 28.5731 21.1272 28.7323 21.213 28.922C21.3357 29.1936 21.6464 29.7205 21.8121 29.9265C21.9778 30.1326 22.1272 30.2707 22.2678 30.5095C22.5074 30.9216 22.3373 30.2473 22.8773 31.3384C23.0119 31.6124 23.5741 32.1978 23.7827 32.3734L24.0682 32.6145L24.4587 32.8838C24.5549 32.9494 24.6333 33.0641 24.7398 33.1226C24.8892 33.2023 24.9277 33.5886 24.8818 33.7876C24.8434 33.8462 24.7591 33.9984 24.7117 34.0335L23.725 34.7687C23.5741 34.8811 23.4217 34.956 23.2693 35.0544L22.6494 35.4618L22.253 35.6936L21.9098 35.9348L21.5236 36.197L21.1789 36.3094C21.0606 36.3469 20.9703 36.4405 20.849 36.4195L20.8461 36.4101Z" fill="white"></path>
<path d="M19.5353 23.4243C18.3888 23.6209 18.7009 23.4945 17.652 23.4243C17.3325 23.4032 17.0396 23.3798 16.7245 23.3165C16.5366 23.2791 16.3369 23.2018 16.1623 23.1854L15.6978 23.1409L15.2022 23.0824L14.8841 23.0637C14.6518 22.9466 14.4359 22.8834 14.1918 22.874C13.8204 22.8576 13.4713 22.7874 13.1059 22.689C12.918 22.6375 12.7064 22.6516 12.5274 22.5837C12.1783 22.4525 11.8203 22.3565 11.5022 22.113L10.9992 21.729C10.8809 21.6377 10.7566 21.3872 10.6309 21.3193C10.5051 21.2514 10.3868 21.235 10.2802 21.1413C10.0288 20.9259 9.724 20.8393 9.49913 20.57C8.65884 19.5678 9.15887 19.8629 8.49019 19.0106L8.36444 18.2074C8.23277 17.3598 8.15585 18.184 8.24017 16.8353C8.28899 16.0626 8.10555 16.0626 8.54345 15.297L8.89998 14.6718C8.98578 14.5219 9.05827 14.3674 9.15887 14.2339C9.28906 14.063 9.40593 13.7633 9.54943 13.6345C9.83643 13.3769 10.0968 13.1381 10.3542 12.8173L10.8528 12.1945C10.906 12.1266 10.9711 11.9322 11.0407 11.8948C11.159 11.8315 11.3069 11.6747 11.4046 11.6559C11.915 11.5599 11.7582 11.3679 12.3839 11.0635L12.8573 10.8341C13.0364 10.7474 13.1946 10.6819 13.3618 10.5601C13.5497 10.422 13.7775 10.4103 13.9802 10.3447C14.2465 10.2581 14.5009 10.2229 14.7687 10.1691C15.0069 10.1199 15.2377 10.0427 15.4818 10.0169L15.9478 9.96773C16.2215 9.93963 16.4863 9.8928 16.7615 9.9209L17.192 9.96304L17.7778 10.0075L18.3622 10.0544L18.8208 10.1082L19.3593 10.1644L19.8741 10.23L20.7099 10.4126C21.0413 10.4852 21.3461 10.6631 21.6464 10.8926L22.0015 11.1619L22.4142 11.485C23.1894 12.0938 23.2279 12.0797 23.8921 13.0351C23.9468 13.1123 24.0105 13.2762 24.0652 13.3676L24.2915 13.7375L24.6422 14.3182L24.8685 14.7373L25.0416 15.03C25.1363 15.1892 25.2176 15.3906 25.302 15.5709C25.5091 16.0134 25.62 16.264 25.5505 16.8096C25.515 17.0858 25.5609 17.4699 25.512 17.7415C25.2546 18.5423 24.5652 18.2285 24.0593 18.5024C23.8862 18.5961 23.7072 18.6945 23.5415 18.8068C23.435 18.8794 23.4143 19.1347 23.2353 19.1347C23.1199 19.1347 22.9705 19.2611 22.8551 19.3407C22.5562 19.5491 22.4024 19.6591 22.1671 19.987L21.8994 20.3569L21.5192 20.9235C21.1242 21.5136 21.3017 21.4621 20.9245 22.2957L20.5561 23.1128C20.4747 23.2955 20.3771 23.2767 20.2439 23.3002L19.5353 23.4219V23.4243ZM18.1669 12.3256C18.3503 12.3654 18.4849 12.4286 18.6432 12.5106C18.837 12.6136 19.0678 12.6323 19.2809 12.7002C19.6019 12.8033 19.8726 13.1334 20.1641 13.3582C20.3283 13.4846 20.4792 13.59 20.6286 13.7492C20.7706 13.8991 20.9156 14.0185 21.0694 14.1215L21.4422 14.7842C21.528 14.9364 21.6508 15.2899 21.6819 15.496C21.7514 16.0743 21.7337 16.6574 21.6508 17.2263L21.5147 18.1793C21.5059 18.2402 21.5266 18.4111 21.5621 18.4252C21.8091 18.5259 21.9467 18.4861 22.1154 18.2308C22.2722 17.992 22.3269 17.7485 22.3003 17.3856C22.2618 16.8821 22.5488 15.2361 21.997 14.1707C21.8727 13.9295 21.5103 13.4074 21.3476 13.2692L21.0295 13L20.7588 12.7611L20.4407 12.4708L20.1922 12.2413C20.0161 12.0774 19.8134 12.061 19.6196 11.958L19.2809 11.78C18.9939 11.6278 17.8059 11.3445 17.476 11.3328C17.0692 11.3164 16.7171 11.2345 16.5203 11.2392L15.9138 11.2555L15.3427 11.3375L14.6311 11.3937C14.4344 11.4101 14.2169 11.5272 14.0142 11.5763C13.8382 11.6185 13.6814 11.7473 13.5216 11.8503L13.2213 12.0446C13.1029 12.1219 12.9683 12.164 12.8559 12.26C12.776 12.3279 12.6798 12.4427 12.6073 12.4895C12.3588 12.6511 12.1384 12.8103 11.9061 13.0093C11.2419 13.583 11.554 13.5315 11.0998 14.1098L10.7418 14.5664C10.5909 14.7608 10.6264 15.2665 10.5673 15.5569C10.5243 15.7652 10.4474 16.0533 10.4962 16.2453C10.5288 16.3717 10.8247 16.9805 10.9223 16.8283C11.0037 16.7018 10.9223 16.6152 10.9593 15.9268L10.98 15.5545C11.3158 14.5687 11.0984 14.9621 11.5984 14.3346C11.7093 14.1941 11.7848 14.0817 11.8617 13.9084C12.0185 13.5525 12.31 13.4636 12.5348 13.2716C12.739 13.0983 12.9269 12.9157 13.1429 12.7822C13.4846 12.5691 13.8219 12.4286 14.1918 12.3724C14.4506 12.3326 14.677 12.1664 14.9359 12.1336L15.2584 12.0961C15.504 12.0657 15.7022 11.9767 15.9478 12.054C16.1667 12.1219 16.3901 12.1289 16.618 12.1336L17.0174 12.1453C17.2245 12.15 17.439 12.1687 17.6535 12.2156L18.1654 12.3256H18.1669Z" fill="white"></path>
<path d="M25.9633 32.5163C25.7621 32.5373 25.623 32.4249 25.4485 32.3266C25.3168 32.2517 25.1555 32.2376 25.0298 32.1393L24.3389 31.6007C24.1791 31.4766 24.0593 31.3478 23.8699 31.3198C23.5415 30.8749 23.7531 30.8608 23.2723 30.5822C22.9601 30.0132 23.2101 30.1584 22.8314 29.6994C22.4527 29.2405 22.3403 28.9736 22.0725 28.6668C21.9571 28.5334 21.9157 28.3109 21.8609 28.1377L21.7189 27.6834C21.6494 27.461 21.6035 27.2315 21.5488 26.995C21.4319 26.4916 21.2573 25.8032 21.3994 25.2974C21.4497 25.1172 21.3772 24.8479 21.389 24.6606C21.4216 24.115 21.4822 23.7474 21.4867 23.3587C21.4911 23.0122 21.6479 22.7569 21.7293 22.4736L21.889 21.9163C21.9453 21.722 22.0725 21.6377 22.1672 21.5019L22.5178 20.9985L22.8566 20.5161C23.2323 19.9823 23.2812 20.0666 23.7723 19.7153L24.3315 19.3149C24.5993 19.336 24.8671 19.425 25.1274 19.3337C25.2399 19.2939 25.37 19.2119 25.484 19.2072C26.1867 19.1745 26.8702 19.1885 27.5684 19.2728L28.0655 19.3313C28.3791 19.3688 28.672 19.4718 28.9842 19.5491C29.2786 19.624 29.5715 19.624 29.8748 19.6615C29.9754 19.6732 30.11 19.7879 30.1899 19.8113C30.4015 19.8699 30.4843 19.9776 30.6322 20.1696C31.3187 21.0594 31.329 21.3333 31.8365 22.1247C31.9622 22.3214 32.0214 22.401 32.0924 22.6492C32.2522 23.2088 32.4726 23.738 32.5214 24.3702L32.6176 25.6229C32.7374 27.18 32.4297 26.8241 32.5051 27.9597C32.3838 28.2173 32.2507 28.4585 32.1471 28.7043C32.0436 28.9502 31.977 29.1234 31.8453 29.3084C31.7862 29.3927 31.6841 29.5871 31.653 29.6994C31.4918 30.2778 31.3601 29.957 30.9266 30.7672C30.8527 30.9053 30.792 31.0505 30.6899 31.1301L29.5271 32.0433C29.431 32.1182 29.2742 32.1276 29.1913 32.2353C29.0389 32.432 28.8806 32.4624 28.6928 32.4788L28.2963 32.5163L27.7001 32.6216C27.5448 32.6497 27.3791 32.6567 27.237 32.6567L26.6897 32.6497C26.2311 32.6427 26.1186 32.5045 25.9588 32.5209L25.9633 32.5163ZM24.5253 22.305C24.7502 22.1739 24.9277 22.0358 25.1289 21.8648C25.1984 21.8063 25.3271 21.7782 25.4041 21.729C25.6068 21.6002 25.9381 21.6026 26.1778 21.6494L26.4914 21.7103L26.882 21.7571C27.1009 21.7829 27.2681 21.8929 27.4811 21.9468L28.0344 22.0873C28.1646 22.12 28.2815 22.2465 28.4087 22.3378C28.5581 22.4455 28.6913 22.7312 28.8437 22.8014C29.0611 22.9021 29.1736 23.0824 29.3363 23.2814C29.499 23.4805 29.6721 23.6139 29.7875 23.9324C29.8851 24.1993 29.9902 24.4475 30.1115 24.7097C30.1174 24.9369 30.1159 25.2436 30.1041 25.4777L30.0671 26.2177C30.0568 26.4237 30.039 26.5829 30.1366 26.7398C30.1825 26.8147 30.2594 26.9084 30.3097 26.906C30.4 26.9037 30.7018 26.6274 30.7121 26.4916C30.7462 26.0116 30.7683 25.5175 30.7373 25.0375C30.7121 24.6606 30.5701 24.2976 30.4547 23.9722L30.2787 23.4687C29.971 22.586 29.8067 22.6984 29.3629 22.1809C28.9605 21.7103 28.8437 21.7782 28.4871 21.4878C28.0611 21.1413 27.4397 20.9189 26.9648 20.8463C26.3908 20.7573 25.5017 20.6543 24.9869 21.0242L24.5653 21.3286L24.0549 21.6962C23.8744 21.825 23.4986 22.2605 23.3803 22.579L23.0341 23.5062C22.7974 24.1408 22.9409 24.1431 22.8018 24.7589C22.8018 25.1616 22.7796 26.0069 22.8832 26.3698C23.0385 26.9178 23.1998 27.468 23.3891 27.9902C23.4306 28.1049 23.867 28.7722 24.009 29.0251C24.0859 29.1632 24.2206 29.2405 24.336 29.2873L24.5283 29.4887C24.6659 29.6315 24.8922 29.6667 25.0653 29.6901L25.5002 29.751C25.6556 29.772 25.7532 29.7065 25.8183 29.4981C25.8553 29.381 25.879 29.0953 25.7414 29.0181C25.6038 28.9408 25.3893 28.9548 25.2295 28.8893L24.7176 28.6762L24.4055 28.133C24.0874 27.5804 23.9232 27.5874 23.6244 26.3043C23.5874 26.1451 23.4483 25.9484 23.4439 25.7704L23.4247 24.8736C23.4113 24.3047 23.6466 23.6467 23.8966 23.2463L24.1673 22.8131C24.2723 22.6445 24.4055 22.4736 24.5268 22.305H24.5253Z" fill="white"></path>
<path d="M34.4742 18.9895C34.6932 19.4999 34.4402 19.8441 34.273 20.378C34.1517 20.7643 34.0866 21.235 33.8159 21.4621C33.6206 21.626 33.449 21.6822 33.2374 21.6424L32.875 21.5768C32.6871 21.5417 32.4696 21.5909 32.3113 21.3872C31.9489 20.9236 32.1989 21.0219 31.866 20.584L31.3764 19.9425C31.1323 19.2564 30.8482 19.5023 30.5242 19.048C30.3807 18.8467 30.2358 18.8186 30.0405 18.7881C29.7357 18.7436 29.4295 18.6149 29.1277 18.5235C28.7682 18.4158 28.9013 17.8305 28.8584 17.0039C28.8437 16.73 28.8437 16.4864 28.851 16.2125L28.8866 14.7912L28.9191 13.2552L28.9442 12.8431L28.9738 12.3959L28.9812 10.5016C28.9812 10.3986 29.0375 10.1902 29.073 10.1387C29.2165 10.237 29.3585 10.1551 29.465 10.1832L30.0671 10.3494C30.1411 10.3705 30.2565 10.4501 30.3304 10.4618C30.5583 10.4993 30.7624 10.5508 30.9799 10.6187L31.7876 10.8692C31.8882 10.8997 32.0317 10.9043 32.1383 10.9207L32.5273 10.9769L32.9208 11.0355L33.557 11.0612C33.7493 11.0682 33.9268 11.1104 34.1236 11.1057C34.2597 11.1034 34.3869 11.1268 34.5186 11.1408C34.9047 11.183 35.5778 11.0753 35.6932 11.3352C35.6651 11.8128 35.6074 12.2764 35.4965 12.7143L35.353 13.2763C35.3056 13.4589 35.3337 13.7984 35.3426 14.0209C35.3544 14.3089 35.2494 14.4611 35.1888 14.6929C35.1089 15.0019 35.0349 15.6529 34.9905 15.8496C34.9358 16.0954 34.8781 16.3179 34.8529 16.5731L34.7006 18.1278C34.671 18.4346 34.708 18.7624 34.4727 18.9918L34.4742 18.9895Z" fill="white"></path>
<path d="M36.4581 22.668L36.1533 22.9162L35.6326 23.3447L35.3841 23.6069L35.0897 23.834L34.7908 24.0775C34.705 24.1478 34.6133 24.2227 34.5334 24.2976C34.2183 24.5927 34.2834 24.4616 33.9846 24.773C33.8766 24.8854 33.7523 25.0141 33.6206 25.0376C33.2375 25.1078 33.2449 24.3421 33.0762 23.7029L32.9401 23.1831C32.8928 23.0028 32.7626 22.7569 32.8883 22.5673L33.3751 22.5532L33.8351 22.483C34.0881 22.4455 34.2686 22.0241 34.455 21.8133C34.958 21.2443 34.7879 20.8744 35.0098 19.9682C35.171 19.3103 35.0941 19.3782 35.1385 18.6266C35.2021 17.5776 35.3989 17.4746 35.461 16.7698L35.5261 16.0299L35.6311 14.9715C35.643 14.8521 35.6474 14.6226 35.6799 14.5336C35.7495 14.3463 35.8723 14.2035 35.859 13.96C35.8456 13.7165 35.9181 13.2365 36.1208 13.2739L36.9241 13.4238C37.0972 13.4566 37.2732 13.5643 37.4582 13.5736C37.939 13.5994 37.7259 13.6369 38.2556 13.8851C38.6609 14.0747 39.0426 14.2246 39.4731 14.255C39.553 14.2597 39.661 14.3838 39.7364 14.433L40.1714 14.7186C40.2705 14.7842 40.4687 14.7186 40.5693 14.8099C40.954 15.1635 40.7602 14.8334 41.3593 15.2618C41.5975 15.4328 41.8312 15.5475 42.0739 15.7044L42.426 15.9292C42.5369 15.9994 42.6804 16.1212 42.7781 16.2031C42.8446 16.4958 42.673 16.6363 42.5902 16.7955C42.4629 17.039 42.3638 17.1936 42.1759 17.2849L41.9318 17.5682C41.6789 17.8632 41.4422 18.2238 41.1433 18.3948C40.7513 18.6219 40.4229 18.9146 40.0767 19.2939C40.016 19.3618 39.8888 19.4344 39.8163 19.4976C39.5382 19.7341 39.2867 19.9846 39.0204 20.2469C38.8636 20.4014 38.6994 20.6145 38.5426 20.7269C38.3724 20.8486 38.2422 20.9165 38.1165 21.132C37.9907 21.3474 37.8295 21.4644 37.6475 21.516L37.4493 21.8204C36.9596 21.9 37.1357 22.1341 36.7347 22.3214C36.6667 22.49 36.5809 22.5556 36.4507 22.6609L36.4581 22.668Z" fill="white"></path>
<path d="M25.6511 14.7068L25.3242 14.0746C25.0239 13.4916 25.012 13.6532 24.6866 12.9484C24.6111 12.7845 24.5401 12.6697 24.4469 12.5316C24.2945 12.3092 24.1643 11.986 23.9868 11.8174C23.5149 11.3679 22.6051 10.4875 22.1198 10.2767C21.5695 10.0379 21.7677 10.1573 21.2514 9.78503C20.9348 9.55791 20.5709 9.5462 20.2292 9.43849C20.0398 9.37996 19.8638 9.36122 19.6685 9.34483L18.9613 9.28161C18.806 9.26756 18.5471 9.14112 18.1462 9.12707L17.7246 9.11537L17.3177 9.09898C17.0796 9.08961 16.8221 9.04278 16.584 9.08961C16.1771 9.17156 15.7925 9.2301 15.3916 9.16454C14.9507 9.42679 14.8708 9.05683 14.501 9.4502C14.3871 9.56962 14.1977 9.41976 14.0808 9.46659C13.7598 9.59771 13.4551 9.79206 13.1266 9.78269C12.6562 9.76864 12.6739 10.4336 12.1295 10.1667C12.3307 9.78737 12.8663 9.45488 13.097 9.35186C13.1725 9.21371 13.2169 9.13176 13.3471 9.12473L13.8826 9.09664C14.0823 9.08727 14.2554 9.15283 14.4477 9.00298C14.5735 8.90463 14.7288 8.87654 14.8634 8.81566C15.0439 8.73371 15.2111 8.66112 15.3945 8.64707C15.9641 7.91653 16.2541 8.1015 16.7866 6.98227C16.8887 6.88393 17.0766 6.75515 17.1875 6.70129C17.7971 7.02442 17.8562 6.69427 18.5412 7.19301C18.624 7.25388 18.8238 7.21408 18.8918 7.30306C19.0471 7.51145 19.2084 7.48803 19.3815 7.57467C19.8283 7.79711 20.2469 8.01487 20.7292 8.01721C20.7884 8.01721 20.9156 8.09682 20.9822 8.10619C21.1937 8.13897 21.426 8.11789 21.6154 8.23029C22.1065 8.52531 22 8.34736 22.6154 8.67517C22.7486 8.74541 22.8906 8.77351 23.0223 8.82736C23.4306 8.99595 23.8108 9.13644 24.2398 9.13644C24.37 9.13644 24.5031 9.24649 24.6156 9.29566L25.1807 9.53449C25.4115 9.63284 25.6171 9.71479 25.8331 9.85996C26.0373 9.99811 26.2902 9.96533 26.4988 10.059L27.166 10.3587C27.2814 10.4102 27.3894 10.4945 27.5152 10.5156C27.6409 10.5367 27.7371 10.6163 27.8747 10.6982C28.0596 10.8129 28.4324 10.9511 28.4605 11.3936C28.4886 11.8362 28.3969 12.3747 28.3776 12.8524C28.3599 13.2949 28.3747 13.7258 28.3836 14.166L28.4191 15.8073C28.425 16.079 28.4043 16.292 28.3895 16.566L28.3436 17.4464C28.3273 17.7508 28.3273 18.0107 28.3229 18.3315C28.1202 18.4111 27.5551 18.3596 27.3362 18.3315L26.3982 18.2097C26.2148 18.1863 26.1053 18.02 26.126 17.7227C26.1423 17.4838 26.2133 17.1841 26.1926 16.9547L26.1319 16.2733C26.0683 15.5498 25.9515 15.2992 25.6423 14.6998L25.6511 14.7068Z" fill="white"></path>
<path d="M34.6887 10.2018C34.3277 10.2065 33.9638 10.2299 33.6073 10.1854C33.4445 10.1667 33.2848 10.1269 33.125 10.1339C32.8084 10.148 32.4992 10.1737 32.1871 10.1246C32.0672 10.0707 31.9119 9.89509 31.7832 9.86934L30.394 9.59772C30.2239 9.56494 30.0671 9.4666 29.9251 9.32845C29.6499 9.26757 28.9871 9.34016 29.0581 8.67283C29.104 8.242 29.5922 7.93527 29.8452 7.80414C30.036 7.70346 30.2239 7.5817 30.431 7.62385C31.1012 7.75965 30.8911 7.38267 31.4296 7.66365C31.6648 7.65897 31.8779 7.75497 32.1116 7.76668L32.7714 7.79946L33.3898 8.00317C33.733 8.11556 34.0866 8.12024 34.4269 8.26776C34.4668 8.28415 35.0911 8.64942 35.1236 8.67518L35.4388 8.91869C35.5911 9.03577 35.8352 9.5064 35.7731 9.74289C35.7524 9.81782 35.6607 9.91148 35.6059 9.96534C35.3263 10.2393 35.0156 10.34 34.6887 10.2018Z" fill="white"></path>
<path d="M13.6873 8.07349C13.5571 8.06881 13.4609 7.92364 13.3944 7.77378L13.1192 7.62627C13.1192 7.34061 13.2139 7.12285 13.3426 6.92148L13.5541 6.58431C14.0364 6.36421 14.3767 5.66176 14.5276 5.49552L14.8442 5.14429C15.0291 4.94058 15.1696 4.74858 15.3279 4.4957C15.4581 4.28731 15.6933 4.0836 15.8783 4.03677C16.1667 3.96418 16.4641 4.08828 16.7777 3.93843L17.2763 3.69959L17.5337 3.00183C17.5929 3.08378 17.6476 3.18213 17.655 3.25705C17.6624 3.33198 17.6151 3.5193 17.5574 3.55911C17.2082 3.80028 17.5825 4.12575 17.0026 5.16771C16.9405 5.72498 16.7156 5.83035 16.3975 6.3525C16.3576 6.41806 16.3369 6.65689 16.2836 6.68733C15.9611 6.86763 15.9552 7.09709 15.6297 7.45534C15.433 7.67076 15.1903 7.77144 14.9773 7.95174C14.8604 8.05242 14.7702 8.10159 14.6282 8.09925L14.1311 8.08754L13.6828 8.06881L13.6873 8.07349Z" fill="white"></path>
<path d="M4.0639 12.349C3.97662 12.3795 3.54907 12.7635 3.50173 12.7588C3.45143 12.7541 3.38782 12.5457 3.4248 12.4919L3.61565 12.2156C3.74731 12.1711 3.84791 12.1032 3.95147 12.0095L4.22515 11.7566C4.28285 11.7028 4.44114 11.6934 4.4944 11.6255C4.90567 11.0987 4.97077 11.3984 5.3628 11.0917C5.51814 10.9699 5.71194 10.9676 5.88059 10.8879C6.02261 10.82 6.15576 10.5742 6.29186 10.4922L6.69721 10.2511L6.98569 10.0778L7.25494 9.88344L7.7387 9.58607C7.38365 9.80383 9.22401 8.82041 8.82901 8.99368L9.72256 8.60031L10.1693 8.34275L10.9105 7.88615L11.2878 7.64732C11.5126 7.50449 11.7242 7.48342 11.9742 7.49513C12.0689 7.49981 12.2686 7.364 12.3233 7.55366C12.5275 8.24674 11.0466 8.73611 10.767 8.77124L10.4711 8.8087C10.3247 8.82743 9.88086 9.24422 9.66931 9.36129C9.49474 9.45729 9.32757 9.5252 9.15892 9.63525L8.77576 9.88344C7.98132 10.3986 8.26241 10.0239 7.47833 10.4477C6.93687 10.7404 7.11736 10.7006 6.56259 11.101C6.45755 11.1759 6.27855 11.1385 6.18978 11.2275C5.92053 11.4967 5.6069 11.5365 5.32582 11.677C5.2696 11.7496 5.1838 11.8643 5.0906 11.8737L4.64974 11.9182L4.48553 12.1406C4.35682 12.3162 4.24291 12.2928 4.06094 12.3537L4.0639 12.349Z" fill="white"></path>
<path d="M7.76088 12.0469L7.41914 12.0984C7.30819 12.2295 7.178 12.3373 7.06409 12.2413C7.09959 11.794 7.39547 11.7753 7.56856 11.6418C7.72685 11.5201 7.84964 11.3983 8.01977 11.3234L8.35559 11.1759L8.65443 10.9909C8.82752 10.8832 8.95771 10.731 9.17518 10.8176C9.24915 10.8481 9.31868 10.724 9.38081 10.6514C9.57905 10.4243 9.87345 10.4008 10.1175 10.4383C10.1368 10.539 10.0776 10.6537 10.0214 10.7193C9.67373 11.1361 9.84534 10.635 9.511 11.0658C9.4459 11.0448 9.32903 11.012 9.25802 11.0049L9.09677 10.9886C8.99617 11.2087 8.83344 11.314 8.65295 11.2274C8.52424 11.3749 8.37778 11.6535 8.2328 11.7449L7.76088 12.0422V12.0469Z" fill="white"></path>
<path d="M2.88183 13.1029C2.83005 13.1451 2.7117 13.0655 2.64661 12.9999L2.95284 12.7072C2.99722 12.6651 3.11261 12.6768 3.15552 12.7072C3.07711 12.8594 2.98243 13.0186 2.88183 13.1053V13.1029Z" fill="white"></path>
<path d="M18.1669 12.3257L17.655 12.2156C17.4405 12.1688 17.226 12.1524 17.0189 12.1454L16.6195 12.1336C16.3916 12.1266 16.1682 12.1219 15.9493 12.054C15.7052 11.9768 15.5055 12.0681 15.2599 12.0962L14.9374 12.1336C14.6785 12.1641 14.4521 12.3327 14.1933 12.3725C13.8234 12.4287 13.4861 12.5692 13.1444 12.7822C12.9284 12.918 12.7405 13.0983 12.5363 13.2716C12.3115 13.4636 12.02 13.5526 11.8632 13.9085C11.7863 14.0818 11.7108 14.1965 11.5999 14.3346C11.0999 14.9622 11.3173 14.5688 10.9815 15.5546L10.9608 15.9269C10.9223 16.6153 11.0052 16.7019 10.9238 16.8283C10.8262 16.9805 10.5303 16.3717 10.4977 16.2453C10.4489 16.0533 10.5273 15.7653 10.5688 15.5569C10.6279 15.2666 10.5924 14.7608 10.7433 14.5665L11.1013 14.1099C11.5555 13.5315 11.2434 13.583 11.9076 13.0094C12.1399 12.808 12.3603 12.6511 12.6088 12.4896C12.6798 12.4427 12.7775 12.328 12.8574 12.2601C12.9698 12.1641 13.1044 12.1219 13.2228 12.0447L13.5231 11.8503C13.6829 11.7473 13.8382 11.6185 14.0157 11.5764C14.2184 11.5272 14.4359 11.4101 14.6326 11.3937L15.3442 11.3375L15.9153 11.2556L16.5218 11.2392C16.7186 11.2345 17.0707 11.3188 17.4775 11.3329C17.8074 11.3446 18.9954 11.6279 19.2824 11.7801L19.6211 11.958C19.8164 12.0611 20.0176 12.0798 20.1937 12.2414L20.4422 12.4708L20.7603 12.7612L21.031 13L21.3491 13.2693C21.5118 13.4074 21.8742 13.9296 21.9985 14.1707C22.5503 15.2361 22.2648 16.8822 22.3018 17.3856C22.3284 17.7462 22.2737 17.9921 22.1169 18.2309C21.9482 18.4861 21.8106 18.5283 21.5636 18.4252C21.5281 18.4112 21.5074 18.2402 21.5162 18.1794L21.6523 17.2264C21.7337 16.6597 21.7529 16.0767 21.6834 15.496C21.6509 15.29 21.5295 14.9364 21.4437 14.7842L21.0709 14.1216C20.9171 14.0185 20.7721 13.8991 20.6301 13.7493C20.4807 13.5901 20.3283 13.4847 20.1655 13.3582C19.8756 13.1335 19.6049 12.8033 19.2824 12.7003C19.0693 12.6324 18.8385 12.6137 18.6447 12.5106C18.4864 12.4263 18.3518 12.3631 18.1684 12.3257H18.1669Z" fill="black"></path>
<path d="M24.5253 22.305C24.4055 22.4736 24.2723 22.6445 24.1658 22.8131L23.8951 23.2463C23.6436 23.6467 23.4098 24.3046 23.4232 24.8736L23.4424 25.7704C23.4468 25.9507 23.5859 26.1451 23.6229 26.3043C23.9217 27.5874 24.0859 27.5827 24.404 28.133L24.7161 28.6762L25.228 28.8893C25.3878 28.9548 25.5979 28.9384 25.7399 29.0181C25.8819 29.0977 25.8538 29.381 25.8168 29.4981C25.7517 29.7041 25.6526 29.772 25.4987 29.7509L25.0638 29.6901C24.8907 29.6667 24.6644 29.6315 24.5268 29.4887L24.3345 29.2873C24.2176 29.2428 24.0844 29.1632 24.0075 29.0251C23.867 28.7722 23.4291 28.1049 23.3877 27.9901C23.1983 27.4703 23.037 26.9201 22.8817 26.3698C22.7781 26.0046 22.8003 25.1616 22.8003 24.7589C22.9394 24.1431 22.7959 24.1407 23.0326 23.5062L23.3788 22.579C23.4971 22.2605 23.8744 21.825 24.0534 21.6962L24.5638 21.3286L24.9854 21.0242C25.5002 20.6543 26.3893 20.7573 26.9633 20.8463C27.4367 20.9189 28.0581 21.1413 28.4856 21.4878C28.8407 21.7782 28.959 21.7126 29.3614 22.1809C29.8052 22.6984 29.9695 22.586 30.2772 23.4687L30.4532 23.9722C30.5671 24.3 30.7106 24.6606 30.7358 25.0375C30.7683 25.5175 30.7447 26.0116 30.7106 26.4916C30.7003 26.6297 30.3985 26.9037 30.3082 26.906C30.2579 26.906 30.1825 26.8147 30.1351 26.7398C30.0375 26.5829 30.0553 26.4237 30.0656 26.2176L30.1026 25.4777C30.1144 25.2436 30.1144 24.9392 30.11 24.7097C29.9887 24.4475 29.8837 24.1993 29.786 23.9323C29.6691 23.6139 29.499 23.4828 29.3348 23.2814C29.1706 23.08 29.0596 22.9021 28.8422 22.8014C28.6898 22.7312 28.5566 22.4478 28.4072 22.3378C28.2815 22.2465 28.1631 22.1224 28.0329 22.0873L27.4796 21.9468C27.2651 21.8929 27.0994 21.7829 26.8805 21.7571L26.4899 21.7103L26.1763 21.6494C25.9366 21.6026 25.6067 21.6026 25.4026 21.729C25.3257 21.7782 25.1955 21.8063 25.1274 21.8648C24.9262 22.0334 24.7472 22.1739 24.5238 22.305H24.5253Z" fill="black"></path>
</g>
<defs>
<clipPath id="clip0_18_852">
<rect width="44" height="38" fill="white"></rect>
</clipPath>
</defs>
</svg>